<svg xmlns="http://www.w3.org/2000/svg" fill="none" viewBox="0 0 25 24" id="Pin">
  <path fill="#ea6429" fill-rule="evenodd" d="M12.7583 4.55458C13.6028 3.34428 15.244 3.00133 16.5025 3.77217L16.6146 3.84082C18.3612 4.91066 19.7312 6.49816 20.5339 8.38261C21.1069 9.72786 20.5054 11.2848 19.1767 11.8954L17.4262 12.6998C16.9658 12.9114 16.8084 12.986 16.6766 13.0729C16.2504 13.3538 15.9323 13.7713 15.7747 14.2569C15.726 14.407 15.6959 14.5785 15.6143 15.0787L15.5821 15.2755C15.4758 15.9264 15.3901 16.4513 15.2963 16.8588C15.2028 17.265 15.0827 17.6465 14.8613 17.9592C14.1706 18.9345 12.9291 19.3521 11.7894 18.9925C11.424 18.8772 11.0977 18.6458 10.7778 18.3787C10.4567 18.1107 10.0713 17.7444 9.59323 17.29L8.50698 16.2576L5.23405 19.5303C4.94115 19.8232 4.46628 19.8232 4.17339 19.5303C3.88051 19.2374 3.88052 18.7625 4.17342 18.4696L7.47191 15.1713L6.57804 14.1032C6.0803 13.5085 5.67769 13.0274 5.39213 12.6251C5.10561 12.2215 4.87068 11.8095 4.80259 11.3512C4.66222 10.4064 5.0222 9.45641 5.75347 8.84185C6.10926 8.54284 6.56279 8.38981 7.04915 8.27697C7.53532 8.16417 8.16445 8.06938 8.9438 7.95195L8.97626 7.94706C9.61566 7.85071 9.83439 7.81438 10.025 7.74603C10.3245 7.63866 10.5977 7.46901 10.8268 7.24828C10.9728 7.10765 11.1001 6.93088 11.4647 6.40837L12.7583 4.55458ZM15.719 5.0513C15.1373 4.69501 14.3788 4.85353 13.9884 5.41294L13.669 5.87062C14.549 6.43181 15.2998 7.17755 15.8677 8.05883L15.9104 8.12515C16.1348 8.47333 16.0345 8.93748 15.6863 9.16186C15.3381 9.38624 14.874 9.28588 14.6496 8.93771L14.6068 8.87138C14.1449 8.15466 13.5307 7.55093 12.8098 7.10209L12.6543 7.32487C12.3457 7.7674 12.1322 8.07349 11.8676 8.32843C11.4858 8.69632 11.0304 8.97906 10.5313 9.15801C10.1854 9.28203 9.81209 9.33819 9.27147 9.41952L9.19977 9.43031C8.38041 9.55378 7.80998 9.64029 7.38816 9.73816C6.9598 9.83754 6.79418 9.9266 6.71852 9.99018C6.38613 10.2695 6.2225 10.7013 6.28631 11.1308C6.30104 11.23 6.36537 11.4048 6.61525 11.7568C6.86205 12.1045 7.22563 12.5398 7.74952 13.1658L8.9865 14.6439L10.6072 16.1842C11.1092 16.6614 11.4596 16.9939 11.739 17.2272C12.0239 17.465 12.1653 17.5382 12.2408 17.562C12.7589 17.7255 13.3232 17.5357 13.6371 17.0923C13.6829 17.0277 13.7513 16.8839 13.8346 16.5223C13.9162 16.1676 13.9944 15.6909 14.106 15.0073L14.143 14.7807C14.212 14.3579 14.2596 14.0663 14.348 13.7938C14.6107 12.9845 15.1407 12.2887 15.8511 11.8205C16.0903 11.6628 16.3588 11.5395 16.7481 11.3607L18.5504 10.5324C19.1412 10.2609 19.4086 9.56862 19.1538 8.97044C18.4733 7.37282 17.3119 6.02695 15.8311 5.11995L15.719 5.0513Z" clip-rule="evenodd" class="color292d32 svgShape"></path>
</svg>
